# xmcd
# 
# Track frame offsets:
#     150
#     16359
#     31379
#     52877
#     69648
# 
# Disc length: 1159
# 
# Revision: 0
# Processed by: cddbd v1.5.2PL0 Copyright (c) Steve Scherf et al.
# Submitted via: fre:ac v1.0.17
# 
DISCID=39048505
DTITLE=Juniel - My First June
DYEAR=2012
DGENRE=Pop
TTITLE0=illa illa
TTITLE1=Ready Go!
TTITLE2=Everlasting Sunset
TTITLE3=Mask
TTITLE4=pabo
EXTD=
EXTT0=
EXTT1=
EXTT2=
EXTT3=
EXTT4=
PLAYORDER=
